<svg xmlns="http://www.w3.org/2000/svg" version="1.1" xmlns:xlink="http://www.w3.org/1999/xlink" width="2000" height="458" viewBox="0 0 2000 458"><svg xml:space="preserve" width="2000" height="458" data-version="2" data-id="lg_bPADXBJtxiL38U7Mky" viewBox="0 0 418 458" x="0" y="0"><rect width="100%" height="100%" fill="transparent"></rect><path fill="#ff6523" d="M54.165 398.038q0 3.8-.91 7.23-.91 3.43-2.84 6.54-1.93 3.11-5.33 5.38-3.41 2.28-7.96 3.35l21.48 32.74h-10.18l-20.62-31.72h-14.74v31.72h-9.16v-76.14h27.97q1.93 0 3.48.11t3.99.56q2.44.46 4.32 1.24 1.87.77 3.93 2.35 2.07 1.58 3.43 3.73 1.37 2.14 2.25 5.46.89 3.32.89 7.45m-41.1-12.91v28.39h13.13q2.73 0 4.82-.18 2.09-.19 4.9-1.02 2.82-.83 4.66-2.31 1.85-1.47 3.17-4.28 1.31-2.82 1.31-6.67 0-2.74-.7-4.93-.69-2.2-1.77-3.62-1.07-1.42-2.62-2.46-1.55-1.05-3-1.58-1.45-.54-3.22-.86-1.76-.32-2.92-.4-1.15-.08-2.43-.08zm112.52 68.15h-44.63v-76.14h44.63v8.04h-35.53v24.86h32.58v8.04h-32.58v27.16h35.53zm24.11 0v-76.14h11.52l41.47 63.71v-63.71h9.1v76.14h-11.52l-41.47-63.81v63.81zm77.9-68.1v-8.04h60.01v8.04h-25.45v68.1h-9.11v-68.1zm75.81 68.1v-76.14h9.11v68.15h34.18v7.99zm75.65-36.06-25.12-40.08h10.76l19.4 31.45 19.82-31.45h10.18l-25.93 40.08v36.06h-9.11zM157.19 130.035a33.44 33.44 0 0 1-30.268-19.257 33.44 33.44 0 0 1-30.268 19.257h-2.307c-21.793-1.47-34.938-25.051-25.944-44.97l31.508-70.137A17.296 17.296 0 0 1 115.68 4.724h143.098a17.296 17.296 0 0 1 15.768 10.204l31.48 70.05c8.964 19.92-4.18 43.5-25.945 44.97h-2.306a33.44 33.44 0 0 1-30.269-19.141 33.41 33.41 0 0 1-60.277.49 33.44 33.44 0 0 1-30.038 18.738M96.682 145.14H93.34a46.123 46.123 0 0 1-6.977-1.038v80.053H75.177a13.895 13.895 0 0 0 0 27.76h94.495a25.368 25.368 0 0 1-.605-19.948 25.944 25.944 0 0 1-5.765-7.841h-49.18v-82.215a49.006 49.006 0 0 1-17.44 3.229m220.786 78.41a9.513 9.513 0 0 0-2.508 10.954l1.442 3.459a9.513 9.513 0 0 1-6.256 12.886l-3.603.95a9.513 9.513 0 0 0-6.976 8.649l-.173 3.805a9.513 9.513 0 0 1-9.513 9.052 8.648 8.648 0 0 1-1.7-.144l-3.69-.663a9.513 9.513 0 0 0-10.061 4.814l-1.845 3.315a9.513 9.513 0 0 1-13.981 3.142l-3.056-2.19a9.513 9.513 0 0 0-11.156 0l-3.056 2.19a9.513 9.513 0 0 1-14.01-3.315l-1.73-3.286a9.513 9.513 0 0 0-10.031-4.872l-3.69.634a8.648 8.648 0 0 1-1.643 0 9.513 9.513 0 0 1-9.542-9.11l-.173-3.747a9.513 9.513 0 0 0-6.918-8.648l-3.748-.98a9.513 9.513 0 0 1-6.169-12.914l1.47-3.46a9.513 9.513 0 0 0-2.45-10.867l-2.882-2.508a9.513 9.513 0 0 1 0-14.414l2.882-2.48a9.513 9.513 0 0 0 2.508-10.867l-1.441-3.46a9.513 9.513 0 0 1 6.255-12.885l3.632-1.009a9.513 9.513 0 0 0 6.977-8.648l.201-3.747a9.513 9.513 0 0 1 9.513-9.052 8.648 8.648 0 0 1 1.701.144l3.69.663a9.513 9.513 0 0 0 10.06-4.814l1.817-3.286a9.513 9.513 0 0 1 14.125-3.114l3.056 2.191a9.513 9.513 0 0 0 11.156 0l3.084-2.162a9.513 9.513 0 0 1 13.952 3.229l1.788 3.315a9.513 9.513 0 0 0 10.031 4.872l3.69-.634a9.513 9.513 0 0 1 11.185 8.965l.173 3.747a9.513 9.513 0 0 0 6.919 8.648l3.603 1.038a9.513 9.513 0 0 1 6.169 12.915l-1.47 3.459a9.513 9.513 0 0 0 2.45 10.868l2.883 2.508a9.513 9.513 0 0 1 0 14.413Zm-36.812-23.062-11.53-11.531-26.637 26.492-11.156-11.214-11.53 11.531 11.156 11.214 11.53 11.53 11.531-11.53Z"></path></svg></svg>